<mxfile host="app.diagrams.net" modified="2023-05-05T06:01:15.636Z" agent="Mozilla/5.0 (Windows NT 10.0; Win64; x64) AppleWebKit/537.36 (KHTML, like Gecko) Chrome/112.0.0.0 Safari/537.36 Edg/112.0.1722.58" version="21.2.7" etag="89InxvugjZnDybL4Y8Kw" type="github">
  <diagram name="第 1 页" id="dj5HzoC9bZBd4u9M4U-k">
    <mxGraphModel>
      <root>
        <mxCell id="0" />
        <mxCell id="1" parent="0" />
      </root>
    </mxGraphModel>
  </diagram>
</mxfile>
